<svg width="48" height="48" viewBox="0 0 48 48" fill="none" xmlns="http://www.w3.org/2000/svg">
<path fill-rule="evenodd" clip-rule="evenodd" d="M0.5 24C0.5 11.0213 11.0213 0.5 24 0.5C36.9787 0.5 47.5 11.0213 47.5 24C47.5 36.9787 36.9787 47.5 24 47.5C11.0213 47.5 0.5 36.9787 0.5 24ZM24 1.5C11.5736 1.5 1.5 11.5736 1.5 24C1.5 36.4264 11.5736 46.5 24 46.5C36.4264 46.5 46.5 36.4264 46.5 24C46.5 11.5736 36.4264 1.5 24 1.5Z" fill="#A7A9B7"/>
<path fill-rule="evenodd" clip-rule="evenodd" d="M15 19.4167C15 19.0025 15.3358 18.6667 15.75 18.6667H32.25C32.6642 18.6667 33 19.0025 33 19.4167C33 19.8309 32.6642 20.1667 32.25 20.1667H15.75C15.3358 20.1667 15 19.8309 15 19.4167Z" fill="#624C9F"/>
<path fill-rule="evenodd" clip-rule="evenodd" d="M17.75 24C17.75 23.5858 18.0858 23.25 18.5 23.25L32.25 23.25C32.6642 23.25 33 23.5858 33 24C33 24.4142 32.6642 24.75 32.25 24.75L18.5 24.75C18.0858 24.75 17.75 24.4142 17.75 24Z" fill="#624C9F"/>
<path fill-rule="evenodd" clip-rule="evenodd" d="M21.4167 28.5833C21.4167 28.1691 21.7525 27.8333 22.1667 27.8333L32.25 27.8333C32.6642 27.8333 33 28.1691 33 28.5833C33 28.9975 32.6642 29.3333 32.25 29.3333L22.1667 29.3333C21.7525 29.3333 21.4167 28.9975 21.4167 28.5833Z" fill="#624C9F"/>
</svg>
